HIERARCHY
ROOT Hips
{
    OFFSET 0.000000 0.000000 0.000000
    CHANNELS 6 Xposition Yposition Zposition Zrotation Xrotation Yrotation
    JOINT Spine
    {
        OFFSET -0.000000 14.517291 0.000000
        CHANNELS 3 Zrotation Xrotation Yrotation
        JOINT Spine1
        {
            OFFSET -0.000000 37.558300 0.000000
            CHANNELS 3 Zrotation Xrotation Yrotation
            JOINT Neck
            {
                OFFSET -0.000000 37.404057 3.400369
                CHANNELS 3 Zrotation Xrotation Yrotation
                JOINT Head
                {
                    OFFSET -0.000000 24.785618 -3.540803
                    CHANNELS 3 Zrotation Xrotation Yrotation
                    End Site
                    {
                        OFFSET -0.000000 35.408028 0.000000
                    }
                }
            }
            JOINT LeftShoulder
            {
                OFFSET 6.992933 33.973492 -0.192664
                CHANNELS 3 Zrotation Xrotation Yrotation
                JOINT LeftArm
                {
                    OFFSET 21.527611 0.000000 0.000000
                    CHANNELS 3 Zrotation Xrotation Yrotation
                    JOINT LeftForeArm
                    {
                        OFFSET 56.353916 0.000000 0.000000
                        CHANNELS 3 Zrotation Xrotation Yrotation
                        JOINT LeftHand
                        {
                            OFFSET 47.774071 0.000000 0.000000
                            CHANNELS 3 Zrotation Xrotation Yrotation
                            End Site
                            {
                                OFFSET 26.556021 0.000000 0.000000
                            }
                        }
                    }
                }
            }
            JOINT RightShoulder
            {
                OFFSET -7.065357 33.973492 -0.192664
                CHANNELS 3 Zrotation Xrotation Yrotation
                JOINT RightArm
                {
                    OFFSET -21.527611 0.000000 0.000000
                    CHANNELS 3 Zrotation Xrotation Yrotation
                    JOINT RightForeArm
                    {
                        OFFSET -56.353916 0.000000 0.000000
                        CHANNELS 3 Zrotation Xrotation Yrotation
                        JOINT RightHand
                        {
                            OFFSET -47.774071 0.000000 0.000000
                            CHANNELS 3 Zrotation Xrotation Yrotation
                            End Site
                            {
                                OFFSET -26.556021 0.000000 0.000000
                            }
                        }
                    }
                }
            }
        }
    }
    JOINT LeftUpLeg
    {
        OFFSET 17.704014 0.000000 0.000000
        CHANNELS 3 Zrotation Xrotation Yrotation
        JOINT LeftLeg
        {
            OFFSET -0.000000 -81.181816 0.000000
            CHANNELS 3 Zrotation Xrotation Yrotation
            JOINT LeftFoot
            {
                OFFSET -0.000000 -62.821102 0.000000
                CHANNELS 3 Zrotation Xrotation Yrotation
                JOINT LeftToeBase
                {
                    OFFSET -0.000000 -11.507608 26.556021
                    CHANNELS 3 Zrotation Xrotation Yrotation
                    End Site
                    {
                        OFFSET -0.000000 0.000000 7.081605
                    }
                }
            }
        }
    }
    JOINT RightUpLeg
    {
        OFFSET -17.704014 0.000000 0.000000
        CHANNELS 3 Zrotation Xrotation Yrotation
        JOINT RightLeg
        {
            OFFSET -0.000000 -81.181816 0.000000
            CHANNELS 3 Zrotation Xrotation Yrotation
            JOINT RightFoot
            {
                OFFSET -0.000000 -62.821102 0.000000
                CHANNELS 3 Zrotation Xrotation Yrotation
                JOINT RightToeBase
                {
                    OFFSET -0.000000 -11.507608 26.556021
                    CHANNELS 3 Zrotation Xrotation Yrotation
                    End Site
                    {
                        OFFSET -0.000000 0.000000 7.081605
                    }
                }
            }
        }
    }
}
MOTION
Frames:    6
Frame Time:    0.008333
-11.136561    157.423584    -93.047073    -1.906486    -6.788656    49.292992    -0.495880    -3.232436    0.654256    -7.797708    2.145595    0.365457    4.541591    7.957759    -21.528183    16.988871    -2.568020    -20.096523    5.865736    7.845364    -17.745474    -25.417522    25.514572    -51.161095    -20.756178    -1.930001    -56.175087    -3.549416    -12.703020    -11.501821    -15.675413    -6.350272    -4.663828    12.654303    -26.094891    48.545464    -6.608625    -1.339819    14.340321    -7.913604    -3.025006    35.250412    23.690094    0.255880    -4.193388    -10.335206    25.148569    -20.502396    -2.924639    -24.338037    41.351200    0.000000    0.000000    0.000000    -11.429623    -13.168815    -22.938765    5.088163    17.206688    -18.580757    6.598197    9.120880    -10.267383    0.000000    0.000000    0.000000    
-11.138036    157.420853    -93.037376    -1.912629    -6.792778    49.336712    -0.495890    -3.247776    0.637820    -7.814105    2.162656    0.361353    4.565524    7.967055    -21.536663    16.995441    -2.574839    -20.104906    5.888818    7.791807    -17.779757    -25.520119    25.314825    -51.498074    -20.085257    -2.437877    -57.993114    -3.763694    -13.231077    -11.282145    -15.646488    -6.336370    -4.664762    12.652344    -26.088158    48.551315    -6.618322    -1.368422    14.319625    -7.931355    -3.059503    35.255444    23.699690    0.230693    -4.194176    -10.313530    25.158493    -20.525177    -2.922208    -24.329746    41.323494    0.000000    0.000000    0.000000    -11.435151    -13.160787    -22.959808    5.104766    17.218641    -18.617279    6.581981    9.112993    -10.254702    0.000000    0.000000    0.000000    
-11.142405    157.419022    -93.037323    -1.909433    -6.787968    49.357918    -0.512348    -3.244237    0.635373    -7.811796    2.157658    0.360400    4.563720    7.958017    -21.538857    16.996201    -2.547352    -20.111393    5.893724    7.740426    -17.811808    -25.626892    25.194502    -51.863785    -19.415663    -3.087726    -59.876190    -3.675926    -13.922491    -11.005408    -15.633726    -6.327003    -4.651505    12.632133    -26.060043    48.534893    -6.641510    -1.398501    14.309649    -7.935080    -3.087956    35.249676    23.694447    0.216635    -4.185881    -10.305676    25.163084    -20.549614    -2.923006    -24.334101    41.336182    0.000000    0.000000    0.000000    -11.496341    -13.146016    -22.785995    5.286716    17.224812    -18.693747    6.563496    9.059734    -10.412065    0.000000    0.000000    0.000000    
-11.145769    157.417374    -93.034157    -1.902397    -6.783997    49.379639    -0.530132    -3.235084    0.629294    -7.818304    2.150241    0.357979    4.581841    7.949274    -21.533659    16.991962    -2.530266    -20.110844    5.907113    7.698549    -17.839315    -25.721457    25.157734    -52.234600    -18.534822    -3.879833    -61.805798    -3.689240    -14.602937    -10.734239    -15.608572    -6.324187    -4.634144    12.616771    -26.038441    48.520588    -6.654652    -1.420133    14.301795    -7.929903    -3.106865    35.251678    23.688103    0.210777    -4.167387    -10.284687    25.164732    -20.575256    -2.943371    -24.336332    41.316780    0.000000    0.000000    0.000000    -11.511661    -13.149063    -22.784958    5.294755    17.249020    -18.712917    6.561462    9.047215    -10.413386    0.000000    0.000000    0.000000    
-11.151373    157.416794    -93.032417    -1.900466    -6.779589    49.401455    -0.546628    -3.216483    0.615569    -7.817039    2.128429    0.352065    4.579508    7.945219    -21.529095    17.002863    -2.517935    -20.106148    5.914370    7.635021    -17.858507    -25.916636    25.061069    -52.594105    -17.600943    -4.550152    -63.623333    -3.840228    -15.063282    -10.517725    -15.592905    -6.320037    -4.610590    12.603625    -26.029997    48.505421    -6.653429    -1.421286    14.295804    -7.925748    -3.106650    35.244026    23.686403    0.201545    -4.168513    -10.279909    25.156181    -20.567102    -2.954338    -24.325289    41.290882    0.000000    0.000000    0.000000    -11.525537    -13.157644    -22.769361    5.312364    17.271893    -18.759220    6.559268    9.043567    -10.417809    0.000000    0.000000    0.000000    
-11.154587    157.416000    -93.028221    -1.896044    -6.771701    49.411961    -0.568903    -3.202572    0.609363    -7.813208    2.113448    0.349144    4.598981    7.922065    -21.516348    16.977789    -2.502122    -20.101469    5.921307    7.582758    -17.866749    -26.098869    25.035124    -52.978146    -16.495071    -5.374179    -65.452606    -3.982126    -15.531107    -10.389210    -15.569578    -6.320964    -4.603142    12.582252    -25.992893    48.502750    -6.678897    -1.430054    14.296967    -7.903648    -3.105619    35.252945    23.679176    0.202148    -4.163718    -10.268906    25.142813    -20.564371    -2.958136    -24.316250    41.266640    0.000000    0.000000    0.000000    -11.540055    -13.164853    -22.750164    5.325174    17.290937    -18.788065    6.552790    9.029417    -10.414233    0.000000    0.000000    0.000000    
